<?xml version="1.0" standalone="no"?>
<!DOCTYPE svg PUBLIC "-//W3C//DTD SVG 20010904//EN"
 "http://www.w3.org/TR/2001/REC-SVG-20010904/DTD/svg10.dtd">
<svg version="1.0" xmlns="http://www.w3.org/2000/svg"
 width="512.000000pt" height="512.000000pt" viewBox="0 0 512.000000 512.000000"
 preserveAspectRatio="xMidYMid meet">

<g transform="translate(0.000000,512.000000) scale(0.100000,-0.100000)"
fill="#000000" stroke="none">
<path d="M0 3840 l0 -1280 40 0 c33 0 40 -3 40 -20 0 -11 5 -20 10 -20 6 0 10
9 10 20 0 25 44 28 66 5 9 -8 24 -15 34 -15 10 0 20 7 24 15 12 31 96 11 96
-24 0 -6 11 -7 29 -1 28 8 70 6 149 -6 24 -4 32 -9 28 -20 -4 -10 3 -14 24
-14 17 0 30 -4 30 -10 0 -5 -6 -10 -12 -10 -9 0 -8 -4 2 -10 8 -5 50 -10 93
-10 70 0 77 -2 77 -19 0 -17 8 -20 48 -23 38 -2 46 -6 44 -20 -2 -15 5 -18 42
-18 25 0 48 -4 51 -10 3 -5 1 -10 -4 -10 -6 0 -11 -4 -11 -10 0 -6 28 -10 65
-10 57 0 65 -2 65 -19 0 -10 6 -19 13 -18 6 0 33 -1 60 -1 40 -2 47 -5 47 -22
0 -13 7 -20 20 -20 14 0 20 -7 20 -21 0 -16 -5 -20 -20 -16 -16 4 -20 0 -20
-19 0 -17 -6 -24 -20 -24 -17 0 -20 -7 -20 -40 0 -33 -3 -40 -20 -40 -13 0
-20 -7 -20 -20 0 -13 -7 -20 -20 -20 -13 0 -20 -7 -20 -20 0 -13 -7 -20 -20
-20 -17 0 -20 -7 -20 -40 0 -33 -3 -40 -20 -40 -13 0 -20 -7 -20 -20 0 -13 -7
-20 -20 -20 -18 0 -20 -7 -20 -60 0 -53 -2 -60 -20 -60 -18 0 -20 -7 -20 -80
0 -73 -2 -80 -20 -80 -17 0 -20 -7 -20 -40 0 -33 -3 -40 -20 -40 -13 0 -20 -7
-20 -20 0 -13 7 -20 20 -20 13 0 20 7 20 20 0 19 7 20 140 20 133 0 140 -1
140 -20 0 -13 -7 -20 -20 -20 -13 0 -20 -7 -20 -20 0 -19 -7 -20 -120 -20
-113 0 -120 -1 -120 -20 0 -19 7 -20 120 -20 113 0 120 -1 120 -20 0 -13 7
-20 20 -20 13 0 20 -7 20 -20 0 -18 -7 -20 -80 -20 -73 0 -80 2 -80 20 0 17
-7 20 -40 20 -33 0 -40 -3 -40 -20 0 -15 7 -20 24 -20 14 0 28 -5 32 -12 4 -7
3 -8 -4 -4 -7 4 -12 3 -12 -2 0 -16 28 -22 96 -22 57 0 64 -2 64 -20 0 -13 7
-20 20 -20 19 0 20 -7 20 -140 0 -133 1 -140 20 -140 13 0 20 7 20 20 0 13 7
20 20 20 13 0 20 7 20 20 0 13 7 20 20 20 18 0 20 7 20 80 0 73 2 80 20 80 18
0 20 7 20 80 0 73 2 80 20 80 18 0 20 7 20 60 0 53 2 60 20 60 17 0 20 7 20
40 0 33 3 40 20 40 13 0 20 7 20 20 0 13 7 20 20 20 18 0 20 7 20 80 0 73 2
80 20 80 17 0 20 7 20 40 0 33 3 40 20 40 13 0 20 7 20 20 0 13 7 20 20 20 13
0 20 -7 20 -20 0 -13 7 -20 20 -20 19 0 20 -7 20 -200 0 -193 -1 -200 -20
-200 -13 0 -20 -7 -20 -20 0 -13 -7 -20 -20 -20 -13 0 -20 -7 -20 -20 0 -13
-7 -20 -20 -20 -19 0 -20 -7 -20 -160 0 -153 1 -160 20 -160 13 0 20 -7 20
-20 0 -13 7 -20 20 -20 19 0 20 -7 20 -100 0 -93 -1 -100 -20 -100 -19 0 -20
-7 -20 -181 0 -176 -1 -181 -20 -176 -19 5 -20 0 -20 -99 0 -97 1 -104 20
-104 18 0 20 -7 20 -80 0 -73 2 -80 20 -80 17 0 20 -7 20 -40 l0 -40 180 0
181 0 -3 39 c-1 29 -7 41 -20 44 -12 4 -16 11 -11 23 6 15 2 16 -33 11 -23 -4
-33 -3 -25 2 11 7 11 9 0 14 -10 4 -10 6 -1 6 6 1 12 5 12 11 0 5 -6 7 -14 4
-17 -7 -26 44 -26 159 0 80 -2 87 -20 87 -13 0 -20 7 -20 20 0 13 7 20 20 20
16 0 20 7 20 30 0 30 14 41 23 18 4 -10 6 -10 6 0 2 25 1 27 -11 27 -9 0 -14
21 -16 62 -3 58 -1 63 18 63 13 0 20 7 20 19 0 13 8 21 23 23 20 3 23 10 18
47 0 5 -10 13 -21 16 -13 4 -20 15 -20 31 0 23 3 24 60 23 33 -1 57 -5 55 -10
-3 -4 3 -13 14 -18 28 -16 34 -14 28 9 -4 16 0 20 19 20 18 0 24 5 22 17 -2
13 8 19 40 26 40 8 42 10 42 43 0 27 4 34 20 34 13 0 20 7 20 20 0 13 7 20 20
20 13 0 20 7 20 20 0 17 7 20 40 20 33 0 40 3 40 20 0 13 7 20 20 20 13 0 20
7 20 20 0 13 7 20 20 20 13 0 20 7 20 20 0 13 7 20 20 20 13 0 20 -7 20 -20 0
-13 7 -20 20 -20 19 0 20 -7 20 -120 0 -113 1 -120 20 -120 13 0 20 -7 20 -20
0 -17 -7 -20 -40 -20 -33 0 -40 -3 -40 -20 0 -17 -7 -20 -40 -20 -33 0 -40 3
-40 20 0 17 -7 20 -40 20 -33 0 -40 -3 -40 -20 0 -11 7 -20 15 -20 8 0 15 -9
15 -19 0 -16 -8 -20 -37 -23 -26 -2 -38 -8 -38 -18 0 -10 -13 -17 -40 -20 -37
-5 -39 -7 -43 -42 l-3 -38 43 1 c33 0 38 2 23 9 -17 7 -17 9 -2 9 9 1 17 6 17
11 0 6 20 10 45 10 38 0 45 3 45 20 0 17 7 20 40 20 33 0 40 3 40 20 0 13 7
20 20 20 13 0 20 7 20 20 0 17 7 20 40 20 l40 0 0 -40 0 -40 60 0 c53 0 60 2
60 20 0 17 -7 20 -40 20 -33 0 -40 3 -40 20 0 13 -7 20 -20 20 -13 0 -20 7
-20 20 0 13 7 20 20 20 17 0 20 7 20 40 0 33 -3 40 -20 40 -13 0 -20 7 -20 20
0 17 7 20 40 20 33 0 40 3 40 20 0 17 -7 20 -40 20 l-40 0 0 40 0 40 40 0 c33
0 40 3 40 20 0 17 -7 20 -40 20 -33 0 -40 3 -40 20 0 13 7 20 20 20 13 0 20 7
20 20 0 13 -7 20 -20 20 -18 0 -20 7 -20 60 0 53 2 60 20 60 13 0 20 7 20 20
0 13 7 20 20 20 13 0 20 7 20 20 0 13 7 20 20 20 13 0 20 7 20 20 0 17 7 20
40 20 33 0 40 3 40 20 0 13 7 20 20 20 17 0 20 7 20 40 0 33 3 40 20 40 11 0
20 7 20 15 0 9 6 12 18 9 14 -5 15 -4 2 5 -8 6 -25 11 -37 11 -16 0 -23 6 -23
20 0 13 -7 20 -20 20 -17 0 -20 7 -20 40 0 33 3 40 20 40 13 0 20 -7 20 -20 0
-13 7 -20 20 -20 13 0 20 -7 20 -20 0 -17 7 -20 40 -20 33 0 40 3 40 20 0 13
7 20 20 20 19 0 20 -7 20 -100 0 -97 1 -100 23 -101 21 0 21 -1 2 -9 -17 -7
-17 -9 -2 -9 15 -1 17 -12 17 -87 0 -77 2 -86 20 -91 18 -5 20 -14 20 -84 0
-72 2 -79 20 -79 18 0 20 -7 20 -60 0 -53 2 -60 20 -60 17 0 20 -7 20 -40 0
-33 3 -40 20 -40 13 0 20 -7 20 -20 0 -15 7 -20 26 -20 14 0 23 -4 19 -10 -3
-5 -1 -10 4 -10 6 0 11 6 12 13 0 6 4 2 9 -11 6 -12 18 -22 30 -22 13 0 20 -7
20 -20 0 -13 7 -20 20 -20 13 0 20 -7 20 -20 0 -13 7 -20 20 -20 13 0 20 -7
20 -20 0 -13 7 -20 20 -20 18 0 20 -7 20 -60 0 -53 -2 -60 -20 -60 -18 0 -20
-7 -20 -60 0 -53 -2 -60 -20 -60 -19 0 -20 -7 -20 -126 0 -105 -2 -125 -14
-121 -18 7 -26 -13 -26 -69 0 -37 -3 -44 -20 -44 -13 0 -20 -7 -20 -20 0 -17
-7 -20 -40 -20 -33 0 -40 -3 -40 -20 0 -20 7 -20 280 -20 l280 0 0 60 c0 54 2
60 21 60 20 0 20 5 18 139 -2 119 -4 138 -18 137 -13 -1 -17 13 -19 82 -3 77
-2 82 18 82 17 0 20 -6 20 -40 l0 -40 40 0 c33 0 40 3 40 20 0 13 7 20 20 20
13 0 20 7 20 20 0 13 7 20 20 20 13 0 20 -7 20 -20 0 -13 7 -20 20 -20 13 0
20 -7 20 -20 0 -13 7 -20 20 -20 17 0 20 -7 20 -40 l0 -40 80 0 c73 0 80 -2
80 -20 0 -18 7 -20 55 -20 34 0 55 4 55 11 0 6 -7 9 -14 6 -10 -4 -13 -1 -10
8 3 8 12 11 20 8 10 -4 14 3 14 21 0 19 5 26 20 26 14 0 20 -7 20 -21 0 -17 5
-20 33 -17 19 2 31 8 30 15 -2 7 2 13 7 13 6 0 10 11 10 25 0 23 4 25 40 25
34 0 40 3 40 21 0 17 -5 20 -23 17 -20 -4 -23 -1 -19 19 4 21 1 23 -37 23
l-41 0 0 -40 c0 -33 -3 -40 -20 -40 -17 0 -20 7 -20 40 0 33 -3 40 -20 40 -13
0 -20 -7 -20 -20 0 -17 -7 -20 -40 -20 l-40 0 0 40 c0 33 -3 40 -20 40 -18 0
-20 7 -20 80 0 73 -2 80 -20 80 -17 0 -20 -7 -20 -40 0 -33 -3 -40 -20 -40
-18 0 -20 -7 -20 -80 0 -73 -2 -80 -20 -80 -18 0 -20 7 -20 60 0 53 -2 60 -20
60 -18 0 -20 7 -20 59 0 50 3 59 20 64 15 4 20 14 20 41 0 35 1 36 40 36 33 0
40 3 40 20 0 13 7 20 20 20 13 0 20 7 20 20 0 13 7 20 20 20 17 0 20 7 20 40
l0 40 40 0 c33 0 40 3 40 20 0 18 -7 20 -60 20 -53 0 -60 2 -60 20 0 13 -7 20
-20 20 -17 0 -20 7 -20 40 0 33 3 40 20 40 13 0 20 7 20 20 0 18 7 20 60 20
53 0 60 2 60 20 0 18 7 20 60 20 53 0 60 -2 60 -20 0 -17 7 -20 40 -20 33 0
40 3 40 20 0 13 -7 20 -20 20 -13 0 -20 7 -20 20 0 19 -7 20 -120 20 -113 0
-120 -1 -120 -20 0 -18 -7 -20 -60 -20 l-60 0 0 40 c0 37 2 40 29 40 53 0 90
11 84 26 -4 11 14 14 101 14 99 0 106 -1 106 -20 0 -13 7 -20 20 -20 13 0 20
7 20 20 0 13 -7 20 -20 20 -13 0 -20 7 -20 20 0 19 -7 20 -140 20 -133 0 -140
-1 -140 -20 0 -17 -7 -20 -39 -20 -40 0 -40 0 -39 40 l0 40 59 0 c52 0 59 2
59 20 0 19 7 20 120 20 113 0 120 -1 120 -20 0 -13 7 -20 20 -20 13 0 20 7 20
20 0 13 -7 20 -20 20 -19 0 -20 7 -20 100 0 93 -1 100 -20 100 -18 0 -20 7
-20 60 0 53 -2 60 -20 60 -17 0 -20 7 -20 40 0 33 -3 40 -20 40 -13 0 -20 7
-20 20 0 13 -7 20 -20 20 -17 0 -20 7 -20 40 0 33 -3 40 -20 40 -14 0 -20 7
-20 21 0 16 -5 20 -20 16 -16 -4 -20 0 -20 19 0 17 -6 24 -20 24 -17 0 -20 7
-20 40 0 33 -3 40 -20 40 -29 0 -27 38 3 42 14 2 21 9 19 20 -2 14 4 17 35 15
26 -1 38 -7 38 -17 0 -8 10 -16 23 -18 20 -3 22 1 22 36 0 39 1 40 40 47 25 4
40 12 40 21 0 8 9 14 20 14 17 0 20 -7 20 -40 0 -38 2 -40 30 -40 21 0 30 5
30 17 0 26 11 8 14 -23 3 -27 7 -29 61 -36 59 -8 86 -18 46 -18 -32 0 -15 -20
17 -21 15 0 21 -3 15 -6 -7 -2 -13 -20 -13 -39 0 -28 4 -34 21 -34 17 0 19 3
10 14 -9 11 -8 15 5 20 29 11 44 6 44 -14 0 -13 7 -20 19 -20 11 0 22 -10 26
-22 l7 -23 8 25 c5 17 8 19 9 7 1 -20 21 -59 36 -69 6 -4 10 -13 10 -20 0 -7
10 -14 23 -16 14 -2 22 -10 22 -23 0 -13 7 -19 21 -19 14 0 19 -5 16 -14 -7
-17 18 -40 33 -31 6 4 10 -4 10 -19 0 -13 6 -27 13 -29 9 -4 9 -6 -1 -6 -29
-2 2 -21 34 -21 27 0 34 -4 34 -20 0 -13 7 -20 20 -20 11 0 20 -7 20 -15 0 -8
9 -15 20 -15 15 0 20 -7 20 -25 0 -18 5 -25 19 -25 10 0 21 -9 24 -19 3 -14
15 -21 38 -23 26 -2 33 -7 31 -20 -2 -13 4 -18 23 -18 l25 0 0 1760 0 1760
-2560 0 -2560 0 0 -1280z m2120 980 c0 -13 7 -20 20 -20 13 0 20 -7 20 -20 0
-13 7 -20 20 -20 13 0 20 -7 20 -20 0 -13 7 -20 20 -20 13 0 20 -7 20 -20 0
-13 7 -20 20 -20 13 0 20 -7 20 -20 0 -13 7 -20 20 -20 17 0 20 -7 20 -40 0
-33 -3 -40 -20 -40 -13 0 -20 7 -20 20 0 13 -7 20 -20 20 -16 0 -20 -7 -20
-35 0 -19 -5 -35 -11 -35 -5 0 -7 5 -4 10 3 6 -1 10 -9 10 -10 0 -13 -6 -10
-15 5 -11 -1 -15 -20 -15 -26 0 -26 0 -26 80 0 73 -2 80 -20 80 -17 0 -20 7
-20 40 l0 40 -60 0 c-53 0 -60 -2 -60 -20 0 -13 -7 -20 -20 -20 -13 0 -20 7
-20 20 0 13 7 20 20 20 13 0 20 7 20 20 0 13 7 20 20 20 13 0 20 7 20 20 0 17
7 20 40 20 33 0 40 -3 40 -20z m960 0 c0 -17 7 -20 40 -20 33 0 40 -3 40 -20
0 -13 7 -20 20 -20 17 0 20 -7 20 -40 0 -33 3 -40 20 -40 18 0 20 -7 20 -60 0
-53 -2 -60 -20 -60 -17 0 -20 7 -20 40 l0 40 -40 0 c-33 0 -40 3 -40 20 0 13
-7 20 -20 20 -13 0 -20 7 -20 20 0 13 -7 20 -20 20 -13 0 -20 -7 -20 -19 0
-15 -8 -19 -40 -19 -40 -1 -40 -1 -40 39 0 32 -3 39 -20 39 -13 0 -20 7 -20
20 0 13 7 20 20 20 13 0 20 7 20 20 0 18 7 20 60 20 53 0 60 -2 60 -20z m-680
-100 c0 -33 -3 -40 -20 -40 -17 0 -20 7 -20 40 0 33 3 40 20 40 17 0 20 -7 20
-40z m80 0 l0 -40 40 0 40 0 0 40 c0 33 3 40 20 40 17 0 20 -7 20 -40 0 -33 3
-40 20 -40 17 0 20 7 20 40 0 33 3 40 20 40 17 0 20 -7 20 -40 0 -33 3 -40 20
-40 13 0 20 7 20 20 0 13 7 20 20 20 13 0 20 7 20 20 0 13 7 20 20 20 13 0 20
-7 20 -20 0 -13 -7 -20 -20 -20 -13 0 -20 -7 -20 -20 0 -13 -7 -20 -20 -20
-13 0 -20 -7 -20 -20 0 -13 7 -20 20 -20 13 0 20 -7 20 -20 0 -13 7 -20 20
-20 13 0 20 -7 20 -20 0 -13 -7 -20 -20 -20 -13 0 -20 -7 -20 -20 0 -13 7 -20
20 -20 13 0 20 -7 20 -20 0 -13 7 -20 20 -20 13 0 20 -7 20 -20 0 -13 7 -20
20 -20 13 0 20 -7 20 -20 0 -13 7 -20 20 -20 13 0 20 -7 20 -20 0 -18 7 -20
60 -20 53 0 60 2 60 20 0 13 7 20 20 20 19 0 20 -7 20 -104 0 -99 1 -104 20
-99 19 5 20 0 20 -76 0 -74 2 -81 20 -81 18 0 20 -7 20 -60 0 -53 2 -60 20
-60 17 0 20 -7 20 -40 0 -33 3 -40 20 -40 17 0 20 -7 20 -40 0 -33 3 -40 20
-40 18 0 20 -7 20 -60 0 -53 2 -60 20 -60 18 0 20 -7 20 -80 0 -73 2 -80 20
-80 19 0 20 -7 20 -100 l0 -100 40 0 c41 0 57 -21 24 -34 -34 -13 -64 -7 -64
14 0 13 -7 20 -20 20 -18 0 -20 -7 -20 -80 0 -73 -2 -80 -20 -80 -17 0 -20 -7
-20 -40 l0 -40 -56 0 c-47 0 -57 -3 -61 -20 -6 -22 -11 -24 -32 -11 -10 7 -14
25 -12 60 2 45 0 51 -19 51 -17 0 -20 -6 -20 -40 0 -33 -3 -40 -20 -40 -17 0
-20 7 -20 40 0 33 -3 40 -20 40 -17 0 -20 7 -20 40 0 33 -3 40 -20 40 -13 0
-20 7 -20 20 0 13 -7 20 -20 20 -13 0 -20 7 -20 20 0 17 -7 20 -40 20 -33 0
-40 -3 -40 -20 0 -13 -7 -20 -20 -20 -17 0 -20 -7 -20 -40 0 -33 -3 -40 -20
-40 -13 0 -20 -7 -20 -20 0 -13 -7 -20 -20 -20 -13 0 -20 -7 -20 -20 0 -13 -7
-20 -20 -20 -13 0 -20 -7 -20 -20 0 -19 -7 -20 -180 -20 -173 0 -180 1 -180
20 0 17 -7 20 -40 20 l-40 0 0 40 c0 33 -3 40 -20 40 -13 0 -20 7 -20 20 0 13
-7 20 -20 20 -18 0 -20 7 -20 60 0 53 -2 60 -20 60 -18 0 -20 7 -20 80 0 73
-2 80 -20 80 -18 0 -20 7 -20 60 0 53 2 60 20 60 18 0 20 7 20 60 0 53 2 60
20 60 17 0 20 7 20 40 0 33 3 40 20 40 17 0 20 7 20 40 0 33 3 40 20 40 13 0
20 7 20 20 0 13 7 20 20 20 13 0 20 7 20 20 0 13 7 20 20 20 13 0 20 7 20 20
0 13 7 20 20 20 13 0 20 7 20 20 0 13 7 20 20 20 17 0 20 7 20 40 l0 40 64 0
c59 0 64 2 59 20 -4 15 0 20 16 20 14 0 21 -6 21 -20 0 -13 7 -20 20 -20 13 0
20 -7 20 -20 0 -13 7 -20 20 -20 13 0 20 -7 20 -20 0 -13 7 -20 20 -20 17 0
20 -7 20 -40 l0 -40 100 0 c93 0 100 1 100 20 0 13 -7 20 -20 20 -17 0 -20 7
-20 40 0 33 -3 40 -20 40 -17 0 -20 7 -20 40 l0 40 40 0 c33 0 40 -3 40 -20 0
-17 7 -20 40 -20 33 0 40 3 40 20 0 13 7 20 20 20 14 0 20 7 20 21 0 18 -6 20
-57 19 -98 -3 -103 -2 -103 20 0 13 -7 20 -20 20 -13 0 -20 7 -20 20 0 17 -7
20 -40 20 -33 0 -40 -3 -40 -20 0 -18 -7 -20 -80 -20 -73 0 -80 2 -80 20 0 13
-7 20 -20 20 -17 0 -20 -7 -20 -40 l0 -40 -60 0 c-53 0 -60 2 -60 20 0 17 -7
20 -40 20 -33 0 -40 3 -40 20 0 19 -7 20 -100 20 -93 0 -100 -1 -100 -20 0
-13 -7 -20 -20 -20 -13 0 -20 -7 -20 -20 0 -13 -7 -20 -20 -20 -18 0 -20 7
-20 60 0 53 2 60 20 60 13 0 20 7 20 20 0 13 7 20 20 20 13 0 20 7 20 20 0 13
7 20 20 20 13 0 20 7 20 20 0 17 7 20 40 20 33 0 40 3 40 20 0 17 7 20 40 20
33 0 40 3 40 20 0 19 7 20 100 20 95 0 100 1 100 21 0 18 -6 20 -42 19 -24 -1
-60 -1 -80 -1 -37 1 -38 2 -38 41 0 33 3 40 20 40 13 0 20 7 20 19 0 10 9 21
20 24 15 4 20 14 20 41 0 29 4 36 20 36 17 0 20 -7 20 -40z m-423 15 c0 -8 -4
-12 -9 -9 -4 3 -8 9 -8 15 0 5 4 9 8 9 5 0 9 -7 9 -15z m818 -65 c4 -6 -1 -7
-12 -3 -16 6 -16 5 -4 -10 12 -15 12 -17 -3 -11 -17 6 -20 16 -9 27 9 10 21 9
28 -3z m-835 -530 c0 -13 7 -20 20 -20 19 0 20 -7 20 -100 0 -93 -1 -100 -20
-100 -17 0 -20 -7 -20 -40 0 -33 3 -40 20 -40 13 0 20 -7 20 -20 0 -14 -7 -20
-21 -20 -19 0 -21 -5 -17 -40 3 -36 1 -40 -19 -40 -16 0 -23 -6 -23 -20 0 -13
7 -20 20 -20 13 0 20 -7 20 -20 0 -13 -7 -20 -20 -20 -17 0 -20 -7 -20 -40 0
-33 -3 -40 -20 -40 -13 0 -20 -7 -20 -20 0 -13 -7 -20 -20 -20 -13 0 -20 -7
-20 -20 0 -13 -7 -20 -19 -20 -11 0 -22 -10 -26 -22 l-7 -23 -7 25 c-7 24 -7
24 -14 -9 -4 -18 -7 -100 -7 -182 0 -142 -1 -149 -20 -149 -14 0 -20 7 -20 24
0 19 -4 23 -20 19 -19 -5 -20 0 -20 75 0 71 -2 80 -20 85 -11 3 -20 12 -20 21
0 9 8 16 20 16 19 0 20 7 20 100 0 93 1 100 20 100 17 0 20 7 20 40 0 33 3 40
20 40 18 0 20 7 20 60 0 53 2 60 20 60 16 0 20 7 20 36 0 27 5 37 20 41 16 4
20 14 20 44 0 32 3 39 20 39 17 0 20 7 20 40 0 33 3 40 20 40 18 0 20 7 20 80
0 73 2 80 20 80 13 0 20 -7 20 -20z m160 0 c0 -13 -7 -20 -20 -20 -17 0 -20
-7 -20 -40 0 -33 -3 -40 -20 -40 -17 0 -20 7 -20 40 0 33 3 40 20 40 13 0 20
7 20 20 0 13 7 20 20 20 13 0 20 -7 20 -20z m160 0 c0 -18 -7 -20 -60 -20 -53
0 -60 2 -60 20 0 18 7 20 60 20 53 0 60 -2 60 -20z m360 -40 c0 -13 -7 -20
-20 -20 -13 0 -20 7 -20 20 0 13 7 20 20 20 13 0 20 -7 20 -20z m760 -900 c0
-33 -4 -40 -19 -40 -15 0 -20 9 -23 40 -3 36 -1 40 19 40 20 0 23 -5 23 -40z
m-1880 -220 c0 -13 -7 -20 -20 -20 -13 0 -20 -7 -20 -20 0 -17 -7 -20 -40 -20
-33 0 -40 -3 -40 -20 0 -13 -7 -20 -20 -20 -13 0 -20 -7 -20 -20 0 -13 -7 -20
-20 -20 -17 0 -20 -7 -21 -45 -2 -68 -3 -69 -21 -73 -16 -3 -18 5 -18 57 0 54
2 61 20 61 13 0 20 7 20 20 0 13 7 20 20 20 13 0 20 7 20 20 0 13 7 20 20 20
13 0 20 7 20 20 0 13 7 20 20 20 13 0 20 7 20 20 0 17 7 20 40 20 33 0 40 -3
40 -20z m80 0 c0 -13 7 -20 20 -20 13 0 20 -7 20 -20 0 -13 -7 -20 -20 -20
-13 0 -20 7 -20 20 0 13 -7 20 -20 20 -13 0 -20 7 -20 20 0 13 7 20 20 20 13
0 20 -7 20 -20z m1800 -40 c0 -13 7 -20 20 -20 13 0 20 -7 20 -20 0 -13 7 -20
20 -20 13 0 20 -7 20 -20 0 -13 -7 -20 -20 -20 -13 0 -20 7 -20 20 0 17 -7 20
-40 20 l-40 0 0 40 c0 33 3 40 20 40 13 0 20 -7 20 -20z m240 0 c0 -13 7 -20
20 -20 13 0 20 -7 20 -20 0 -13 7 -20 20 -20 13 0 20 -7 20 -20 0 -13 7 -20
20 -20 17 0 20 -7 20 -40 0 -33 3 -40 20 -40 13 0 20 -7 20 -20 0 -13 -7 -20
-20 -20 -11 0 -19 -3 -19 -7 1 -5 1 -23 0 -40 l-1 -33 -60 0 -60 0 0 60 c0 53
-2 60 -20 60 -17 0 -20 -7 -20 -40 l0 -40 -40 0 -40 0 0 40 c0 33 3 40 20 40
18 0 20 7 20 60 0 53 -2 60 -20 60 -18 0 -25 11 -21 34 1 5 -7 6 -19 3 -16 -4
-20 0 -20 19 0 23 2 24 80 24 73 0 80 -2 80 -20z m-2120 -80 c0 -13 -7 -20
-20 -20 -13 0 -20 7 -20 20 0 13 7 20 20 20 13 0 20 -7 20 -20z m1840 -60 c0
-33 -3 -40 -20 -40 -13 0 -20 -7 -20 -20 0 -13 -7 -20 -20 -20 -13 0 -20 -7
-20 -20 0 -13 -7 -20 -20 -20 -13 0 -20 -7 -20 -20 0 -17 -7 -20 -40 -20 -33
0 -40 -3 -40 -20 0 -18 -7 -20 -60 -20 -53 0 -60 -2 -60 -20 0 -17 -7 -20 -40
-20 -33 0 -40 3 -40 20 0 17 -7 20 -40 20 -33 0 -40 3 -40 20 0 18 7 20 80 20
73 0 80 2 80 20 0 17 7 20 40 20 33 0 40 3 40 20 0 17 7 20 40 20 33 0 40 3
40 20 0 17 7 20 40 20 33 0 40 3 40 20 0 13 7 20 20 20 13 0 20 7 20 20 0 13
7 20 20 20 17 0 20 -7 20 -40z m120 -80 c0 -73 -2 -80 -20 -80 -18 0 -20 7
-20 60 0 53 -2 60 -20 60 -13 0 -20 7 -20 20 0 17 7 20 40 20 l40 0 0 -80z
m-640 -260 c0 -13 7 -20 20 -20 13 0 20 7 20 20 0 17 7 20 40 20 l40 0 0 -60
c0 -53 -2 -60 -20 -60 -13 0 -20 -7 -20 -20 0 -13 -7 -20 -20 -20 -19 0 -20
-7 -20 -100 0 -93 1 -100 20 -100 14 0 20 7 20 21 0 18 6 20 53 19 127 -4 147
-1 147 20 0 13 -7 20 -20 20 -13 0 -20 7 -20 20 0 13 -7 20 -20 20 -18 0 -20
7 -20 60 l0 60 40 0 c33 0 40 -3 40 -20 0 -13 7 -20 20 -20 13 0 20 -7 20 -20
0 -13 7 -20 20 -20 17 0 20 -7 20 -40 0 -33 -3 -40 -20 -40 -13 0 -20 -7 -20
-20 0 -13 -7 -20 -20 -20 -13 0 -20 -7 -20 -20 0 -13 -7 -20 -20 -20 -13 0
-20 -7 -20 -20 0 -13 -7 -20 -20 -20 -17 0 -20 -7 -20 -40 0 -33 -3 -40 -20
-40 -13 0 -20 -7 -20 -20 0 -13 -7 -20 -20 -20 -18 0 -20 -7 -20 -80 0 -73 2
-80 20 -80 13 0 20 -7 20 -20 0 -13 -7 -20 -20 -20 -13 0 -20 -7 -20 -20 0
-17 7 -20 40 -20 l40 0 0 -60 c0 -53 -2 -60 -20 -60 -17 0 -20 -7 -20 -40 0
-33 -3 -40 -19 -40 -15 0 -21 8 -23 33 -3 28 -8 33 -40 41 l-38 10 0 57 c0 48
3 57 20 62 27 7 26 37 0 37 -14 0 -20 -6 -18 -17 2 -12 -4 -19 -19 -21 -22 -3
-23 0 -23 57 0 54 2 61 20 61 13 0 20 7 20 20 0 13 7 20 20 20 13 0 20 7 20
19 0 16 -9 20 -50 23 -62 4 -70 1 -70 -23 0 -17 -8 -19 -60 -19 -53 0 -60 2
-60 20 0 13 -7 20 -20 20 -13 0 -20 -7 -20 -20 0 -13 -7 -20 -20 -20 -13 0
-20 -7 -20 -20 0 -13 -7 -20 -20 -20 -13 0 -20 -7 -20 -20 0 -13 7 -20 20 -20
13 0 20 -7 20 -20 0 -17 -7 -20 -38 -20 -43 0 -53 -6 -45 -26 3 -9 20 -14 44
-14 32 0 39 -3 39 -20 0 -17 -7 -20 -40 -20 -33 0 -40 -3 -40 -20 0 -13 7 -20
20 -20 13 0 20 -7 20 -20 0 -13 7 -20 20 -20 13 0 20 -7 20 -20 0 -13 7 -20
20 -20 13 0 20 -7 20 -20 0 -15 -7 -20 -24 -20 -14 0 -28 5 -31 10 -4 6 -12 7
-18 4 -8 -4 -7 -2 1 7 11 12 14 12 23 -1 9 -13 10 -13 6 0 -2 8 -13 15 -24 16
-34 2 -53 12 -53 29 0 8 -9 15 -20 15 -13 0 -20 7 -20 20 0 17 -7 20 -40 20
-33 0 -40 3 -40 20 0 13 -7 20 -20 20 -13 0 -20 -7 -20 -20 0 -13 -7 -20 -20
-20 -13 0 -20 -7 -20 -20 0 -13 -7 -20 -19 -20 -10 0 -21 -9 -24 -20 -4 -17
-14 -20 -61 -20 -49 0 -56 -3 -56 -19 0 -13 -8 -21 -22 -23 -13 -2 -23 -10
-23 -18 0 -11 -16 -16 -65 -21 -36 -3 -59 -6 -52 -7 10 -2 9 -6 -3 -19 -14
-13 -18 -14 -25 -2 -6 8 -4 16 3 21 7 4 -2 8 -20 8 -23 0 -33 5 -33 15 0 8 6
15 13 16 10 0 10 2 0 6 -7 2 -13 13 -13 23 0 13 6 18 20 15 16 -3 20 2 20 21
0 17 5 24 20 24 12 0 20 7 20 16 0 9 9 18 20 21 11 3 20 14 20 24 0 12 -7 19
-20 19 -17 0 -20 7 -20 40 0 33 -3 40 -20 40 -17 0 -20 -7 -20 -40 0 -34 -3
-40 -20 -40 -19 0 -21 5 -18 58 l3 57 38 3 37 3 0 60 c0 52 2 59 20 59 13 0
20 7 20 20 0 13 7 20 20 20 13 0 20 7 20 20 0 12 6 20 13 19 43 -5 67 2 67 21
0 13 7 20 20 20 13 0 20 7 20 20 0 17 7 20 41 20 36 0 41 2 36 20 -5 18 0 20
39 20 37 0 44 -3 44 -20 0 -13 7 -20 20 -20 13 0 20 -7 20 -20 0 -17 7 -20 40
-20 l40 0 0 40 c0 33 3 40 20 40 16 0 20 7 20 35 0 29 -4 35 -22 36 l-23 2 23
4 c14 3 22 12 22 24 0 17 7 19 60 19 53 0 60 2 60 20 0 13 7 20 20 20 17 0 20
-7 20 -40 0 -33 3 -40 20 -40 19 0 20 -7 20 -100 0 -93 -1 -100 -20 -100 -17
0 -20 -7 -20 -40 l0 -40 40 0 c33 0 40 3 40 20 0 13 7 20 20 20 13 0 20 7 20
20 0 13 7 20 20 20 13 0 20 7 20 20 0 13 7 20 20 20 17 0 20 7 20 40 l0 40
-40 0 -40 0 0 60 c0 53 -2 60 -20 60 -18 0 -20 7 -20 80 0 73 2 80 20 80 17 0
20 7 20 40 0 33 3 40 20 40 13 0 20 -7 20 -20z m1290 -150 c11 -7 7 -10 -17
-10 -18 0 -33 5 -33 10 0 13 30 13 50 0z m-1625 -140 c3 -6 -1 -7 -9 -4 -18 7
-21 14 -7 14 6 0 13 -4 16 -10z m1015 -250 c0 -33 3 -40 20 -40 13 0 20 -7 20
-20 0 -13 7 -20 20 -20 18 0 20 -7 20 -60 0 -53 2 -60 20 -60 17 0 20 -7 22
-42 2 -62 2 -66 12 -75 5 -4 6 -3 3 3 -4 7 0 18 9 25 13 11 15 11 14 -2 -7
-44 1 -69 20 -69 18 0 20 -7 20 -64 0 -59 2 -64 20 -59 18 5 20 0 20 -56 0
-54 2 -61 20 -61 18 0 20 -7 20 -80 0 -73 2 -80 20 -80 18 0 20 -7 20 -80 0
-73 2 -80 20 -80 13 0 20 -7 20 -20 0 -13 7 -20 20 -20 17 0 20 -7 20 -40 0
-33 -3 -40 -20 -40 -13 0 -20 7 -20 20 0 18 -7 20 -60 20 l-60 0 0 100 c0 93
-1 100 -20 100 -13 0 -20 7 -20 20 0 17 -7 20 -44 20 -39 0 -44 2 -39 20 5 19
0 20 -76 20 l-81 0 0 380 c0 373 0 380 20 380 17 0 20 -7 20 -40z m-570 -350
c0 -5 -4 -10 -9 -10 -6 0 -13 5 -16 10 -3 6 1 10 9 10 9 0 16 -4 16 -10z m13
-64 c7 -18 -1 -26 -25 -26 -11 0 -18 7 -18 20 0 23 35 28 43 6z m77 -86 c0
-53 -2 -60 -20 -60 -12 0 -20 -7 -20 -16 0 -9 9 -18 20 -21 11 -3 20 -14 20
-24 0 -12 7 -19 20 -19 13 0 20 7 20 20 0 17 7 20 40 20 33 0 40 -3 40 -20 0
-13 7 -20 20 -20 17 0 20 -7 20 -40 l0 -40 -40 0 -40 0 0 -40 c0 -33 -3 -40
-20 -40 -14 0 -20 7 -20 24 0 35 -10 56 -26 56 -10 0 -14 12 -14 40 l0 40 -40
0 -40 0 0 100 0 100 40 0 40 0 0 -60z m-1013 28 c-3 -8 -6 -5 -6 6 -1 11 2 17
5 13 3 -3 4 -12 1 -19z m293 -228 c0 -13 7 -20 20 -20 13 0 20 -7 20 -20 0
-19 -5 -21 -77 -18 -61 2 -78 6 -78 18 0 10 12 16 38 18 29 3 37 7 37 23 0 12
7 19 20 19 13 0 20 -7 20 -20z m1229 -196 c-7 -8 -6 -14 3 -17 7 -3 3 -4 -9
-4 -14 1 -21 7 -20 18 1 10 9 17 19 16 12 -1 14 -5 7 -13z"/>
<path d="M2640 4580 c0 -13 7 -20 20 -20 13 0 20 7 20 20 0 13 -7 20 -20 20
-13 0 -20 -7 -20 -20z"/>
<path d="M2720 4580 c0 -13 7 -20 20 -20 13 0 20 7 20 20 0 13 -7 20 -20 20
-13 0 -20 -7 -20 -20z"/>
<path d="M2444 4384 c3 -9 6 -18 6 -20 0 -2 8 -4 18 -4 14 0 15 2 2 10 -10 6
-11 10 -2 10 6 0 12 5 12 10 0 6 -9 10 -21 10 -15 0 -19 -4 -15 -16z"/>
<path d="M2848 4273 c6 -2 18 -2 25 0 6 3 1 5 -13 5 -14 0 -19 -2 -12 -5z"/>
<path d="M2850 4250 c19 -13 30 -13 30 0 0 6 -10 10 -22 10 -19 0 -20 -2 -8
-10z"/>
<path d="M3095 4170 c3 -5 8 -10 11 -10 2 0 4 5 4 10 0 6 -5 10 -11 10 -5 0
-7 -4 -4 -10z"/>
<path d="M2880 4020 c0 -13 7 -20 20 -20 13 0 20 7 20 20 0 13 -7 20 -20 20
-13 0 -20 -7 -20 -20z"/>
<path d="M2240 3660 c0 -13 -7 -20 -20 -20 -18 0 -20 -7 -20 -80 0 -73 2 -80
20 -80 18 0 20 -7 20 -60 0 -53 2 -60 20 -60 19 0 20 -7 20 -100 0 -93 1 -100
20 -100 17 0 20 -7 20 -40 l0 -40 40 0 40 0 0 40 0 40 80 0 c73 0 80 -2 80
-20 0 -17 7 -20 40 -20 33 0 40 3 40 20 0 13 -7 20 -20 20 -16 0 -20 7 -20 34
0 28 4 35 23 39 12 2 1 5 -25 6 -27 0 -48 6 -51 14 -4 10 -6 10 -6 0 -1 -7 -6
-13 -12 -13 -6 0 -9 9 -6 20 4 16 0 20 -19 20 -23 0 -24 3 -24 60 0 53 -2 60
-20 60 -18 0 -20 -7 -20 -80 0 -73 -2 -80 -20 -80 -17 0 -20 7 -20 40 0 33 -3
40 -19 40 -16 0 -20 8 -23 38 -2 25 -8 37 -18 37 -10 0 -16 13 -18 43 -3 37
-1 42 17 42 19 0 21 6 21 60 0 53 -2 60 -20 60 -17 0 -20 7 -20 40 l0 40 -40
0 c-33 0 -40 -3 -40 -20z"/>
<path d="M2560 3660 c0 -13 -7 -20 -20 -20 -18 0 -20 -7 -20 -80 l0 -80 40 0
40 0 0 40 c0 33 3 40 20 40 18 0 20 7 20 60 l0 60 -40 0 c-33 0 -40 -3 -40
-20z"/>
<path d="M2840 3340 c0 -17 7 -20 40 -20 33 0 40 -3 40 -20 0 -13 7 -20 20
-20 17 0 20 7 20 40 l0 40 -60 0 c-53 0 -60 -2 -60 -20z"/>
<path d="M2257 3265 c-4 -8 -2 -17 3 -20 6 -4 10 3 10 14 0 25 -6 27 -13 6z"/>
<path d="M3000 3220 c0 -13 7 -20 20 -20 13 0 20 7 20 20 0 13 -7 20 -20 20
-13 0 -20 -7 -20 -20z"/>
<path d="M2610 3212 c0 -5 7 -9 15 -9 8 0 15 4 15 9 0 4 -7 8 -15 8 -8 0 -15
-4 -15 -8z"/>
<path d="M3058 3163 c-25 -6 -23 -43 2 -43 15 0 20 7 20 25 0 14 -1 24 -2 24
-2 -1 -11 -3 -20 -6z"/>
<path d="M2490 3143 c8 -3 18 -11 22 -17 5 -7 8 -4 8 7 0 11 -7 17 -22 16 -16
0 -18 -2 -8 -6z"/>
<path d="M2440 1820 c0 -93 1 -100 20 -100 13 0 20 7 20 20 0 13 7 20 20 20
17 0 20 7 20 40 0 33 -3 40 -20 40 -14 0 -20 7 -20 21 0 16 5 20 20 16 16 -4
20 0 20 19 0 21 -4 24 -40 24 l-40 0 0 -100z"/>
<path d="M2566 1723 c-14 -15 -5 -43 14 -43 13 0 20 7 20 19 0 19 -23 35 -34
24z"/>
<path d="M660 2416 c0 -2 7 -7 16 -10 8 -3 12 -2 9 4 -6 10 -25 14 -25 6z"/>
<path d="M4200 1420 c0 -5 10 -10 23 -10 18 0 19 2 7 10 -19 13 -30 13 -30 0z"/>
<path d="M800 1300 c0 -13 7 -20 20 -20 13 0 20 7 20 20 0 13 -7 20 -20 20
-13 0 -20 -7 -20 -20z"/>
<path d="M2560 1140 c0 -17 7 -20 40 -20 33 0 40 3 40 20 0 17 -7 20 -40 20
-33 0 -40 -3 -40 -20z"/>
<path d="M4400 1140 c0 -13 7 -20 20 -20 13 0 20 7 20 20 0 13 -7 20 -20 20
-13 0 -20 -7 -20 -20z"/>
<path d="M720 1100 c0 -13 7 -20 20 -20 13 0 20 -7 20 -20 0 -13 7 -20 20 -20
13 0 20 7 20 20 0 18 7 20 83 21 109 2 110 2 114 19 4 13 3 13 -6 0 -10 -13
-13 -13 -25 3 -11 14 -31 17 -130 17 -109 0 -116 -1 -116 -20z"/>
<path d="M4320 1020 c0 -17 6 -20 37 -17 27 2 39 8 41 21 3 11 0 16 -7 11 -6
-3 -8 -11 -5 -17 4 -7 2 -8 -5 -4 -6 4 -9 12 -6 17 4 5 -8 9 -24 9 -24 0 -31
-4 -31 -20z"/>
<path d="M730 990 c10 -6 11 -10 3 -10 -7 0 -13 -4 -13 -10 0 -5 9 -10 21 -10
15 0 19 4 15 16 -3 9 -6 18 -6 20 0 2 -8 4 -17 4 -15 0 -16 -2 -3 -10z"/>
<path d="M1200 940 c0 -13 -7 -20 -20 -20 -13 0 -20 -7 -20 -20 0 -13 7 -20
20 -20 13 0 20 -7 20 -20 0 -13 7 -20 20 -20 17 0 20 -7 20 -40 0 -33 3 -40
20 -40 13 0 20 -7 20 -20 0 -17 7 -20 40 -20 l40 0 0 40 c0 33 3 40 20 40 18
0 20 7 20 80 l0 80 -100 0 c-93 0 -100 -1 -100 -20z"/>
<path d="M4403 937 c0 -12 1 -16 4 -9 3 6 9 12 14 12 6 0 7 -4 4 -10 -3 -5 -2
-10 4 -10 17 0 8 36 -9 37 -10 1 -16 -7 -17 -20z"/>
<path d="M2560 820 c0 -13 7 -20 20 -20 13 0 20 7 20 20 0 13 -7 20 -20 20
-13 0 -20 -7 -20 -20z"/>
<path d="M1900 750 c0 -5 5 -10 10 -10 6 0 10 5 10 10 0 6 -4 10 -10 10 -5 0
-10 -4 -10 -10z"/>
<path d="M720 700 c0 -13 -7 -20 -20 -20 -17 0 -20 -7 -20 -40 0 -33 3 -40 20
-40 17 0 20 -7 20 -40 0 -33 3 -40 20 -40 13 0 20 -7 20 -20 0 -13 7 -20 19
-20 11 0 22 -8 24 -17 4 -17 5 -17 6 0 0 9 6 17 12 17 6 0 9 -9 6 -20 -5 -18
0 -20 44 -20 42 0 49 -3 49 -20 0 -17 7 -20 40 -20 33 0 40 3 40 20 0 17 7 20
40 20 33 0 40 3 40 20 0 13 -7 20 -20 20 -13 0 -20 7 -20 20 0 13 -7 20 -20
20 -13 0 -20 7 -20 20 0 13 -7 20 -20 20 -18 0 -20 7 -20 60 0 53 -2 60 -20
60 -13 0 -20 7 -20 20 0 13 -7 20 -20 20 -15 0 -20 -7 -20 -26 0 -19 -4 -25
-15 -20 -8 3 -15 1 -15 -4 0 -5 8 -10 18 -12 14 -3 13 -5 -5 -10 -18 -5 -23
-2 -23 13 0 17 -27 26 -62 20 -8 -1 -12 15 -9 32 0 4 -10 7 -24 7 -18 0 -25
-5 -25 -20z"/>
<path d="M1125 670 c-3 -5 0 -10 7 -10 9 0 9 -3 -2 -10 -12 -8 -11 -10 8 -10
15 0 22 -6 22 -20 0 -13 7 -20 20 -20 13 0 20 7 20 20 0 13 -7 20 -19 20 -10
0 -21 9 -24 20 -5 21 -22 26 -32 10z"/>
<path d="M2606 672 c-10 -9 -7 -22 5 -22 5 0 7 5 3 12 -5 8 -2 9 10 5 10 -4
20 -7 22 -7 3 0 2 -4 -1 -10 -3 -5 3 -10 14 -10 34 0 19 35 -17 37 -17 0 -33
-1 -36 -5z"/>
<path d="M2080 635 c0 -8 4 -15 10 -15 5 0 7 7 4 15 -4 8 -8 15 -10 15 -2 0
-4 -7 -4 -15z"/>
<path d="M2085 590 c3 -5 8 -10 11 -10 2 0 4 5 4 10 0 6 -5 10 -11 10 -5 0 -7
-4 -4 -10z"/>
<path d="M2060 570 c0 -5 5 -10 10 -10 6 0 10 5 10 10 0 6 -4 10 -10 10 -5 0
-10 -4 -10 -10z"/>
<path d="M2510 571 c0 -6 -6 -11 -12 -10 -53 7 -58 2 -58 -61 0 -53 -2 -60
-20 -60 -17 0 -20 -7 -20 -40 0 -33 -3 -40 -20 -40 -17 0 -20 -7 -20 -40 0
-22 -5 -40 -11 -40 -5 0 -7 6 -3 13 5 8 2 8 -9 -2 -9 -7 -17 -22 -17 -32 0
-12 -7 -19 -20 -19 -18 0 -20 -7 -20 -60 0 -53 -2 -60 -20 -60 -17 0 -20 -7
-20 -40 0 -33 -3 -40 -20 -40 -13 0 -20 -7 -20 -20 0 -20 7 -20 280 -20 l281
0 -3 40 c-1 31 -6 40 -20 40 -14 0 -18 8 -18 40 0 33 -3 40 -20 40 -17 0 -20
7 -20 40 0 33 -3 40 -20 40 -19 0 -25 16 -23 67 1 7 -4 10 -9 7 -5 -3 -7 -13
-4 -21 4 -9 1 -13 -6 -10 -13 4 -15 10 -17 55 -1 15 -7 22 -21 22 -17 0 -20 7
-20 40 0 32 -4 40 -19 40 -16 0 -18 9 -20 67 -1 37 -4 69 -6 72 -3 2 -5 -1 -5
-8z"/>
</g>
</svg>
